<svg width="12" height="10" viewBox="0 0 12 10" fill="none" xmlns="http://www.w3.org/2000/svg">
<path fill-rule="evenodd" clip-rule="evenodd" d="M11.1636 0.826054L1.90651 9.5361C1.70567 9.72507 1.38004 9.72507 1.1792 9.5361C0.97836 9.34713 0.97836 9.04075 1.1792 8.85177L1.67549 8.38482C1.27912 8.02742 0.924611 7.61154 0.625329 7.13799C-0.208443 5.81871 -0.208443 4.18171 0.625329 2.86244C2.54836 -0.180373 6.69543 -0.791886 9.51974 1.00416L10.4363 0.141729C10.6372 -0.0472428 10.9628 -0.0472428 11.1636 0.141729C11.3645 0.3307 11.3645 0.637083 11.1636 0.826054ZM6.72383 3.63483C6.50517 3.53447 6.25958 3.47829 5.99965 3.47829C5.08653 3.47829 4.3464 4.17448 4.3464 5.03448C4.3464 5.27898 4.40605 5.50986 4.51258 5.71539L6.72383 3.63483Z" fill="#202244"/>
<path d="M10.6698 2.69384C10.9139 2.55725 11.2295 2.63273 11.3747 2.86243C12.2084 4.1817 12.2084 5.81871 11.3747 7.13798C9.76545 9.68425 6.59638 10.5262 3.95797 9.68506C3.68896 9.5993 3.54477 9.32459 3.63592 9.07148C3.72706 8.81837 4.01903 8.6827 4.28804 8.76846C6.50975 9.47674 9.15208 8.76127 10.4906 6.64334C11.1317 5.62892 11.1317 4.3715 10.4906 3.35707C10.3454 3.12737 10.4256 2.83043 10.6698 2.69384Z" fill="#202244"/>
<path d="M8.16789 4.55058C8.45192 4.55058 8.68217 4.76723 8.68217 5.03447C8.68217 6.42842 7.48074 7.5578 5.99966 7.5578C5.71563 7.5578 5.48538 7.34116 5.48538 7.07391C5.48538 6.80667 5.71563 6.59002 5.99966 6.59002C6.9131 6.59002 7.6536 5.89353 7.6536 5.03447C7.6536 4.76723 7.88386 4.55058 8.16789 4.55058Z" fill="#202244"/>
</svg>
