<svg width="66" height="70" viewBox="0 0 66 70" fill="none" xmlns="http://www.w3.org/2000/svg">
<path d="M63.7109 39.2383C64.9414 37.1875 65.625 35 65.625 32.4023C65.625 26.3867 60.4297 20.7812 53.8672 20.7812H48.8086C49.4922 19.0039 50.0391 16.9531 50.0391 14.3555C50.0391 4.375 44.8438 0 37.0508 0C28.5742 0 29.1211 12.9883 27.207 14.9023C24.0625 18.0469 20.3711 24.0625 17.7734 26.25H4.375C1.91406 26.25 0 28.3008 0 30.625V63.4375C0 65.8984 1.91406 67.8125 4.375 67.8125H13.125C15.0391 67.8125 16.8164 66.4453 17.2266 64.668C23.3789 64.8047 27.6172 70 41.5625 70C42.6562 70 43.75 70 44.707 70C55.2344 70 59.8828 64.668 60.0195 57.0117C61.9336 54.5508 62.8906 51.1328 62.4805 47.8516C63.8477 45.3906 64.2578 42.3828 63.7109 39.2383ZM55.2344 46.6211C57.0117 49.4922 55.3711 53.3203 53.3203 54.5508C54.4141 61.1133 50.8594 63.4375 46.0742 63.4375H40.8789C31.1719 63.4375 24.7461 58.3789 17.5 58.3789V32.8125H18.8672C22.832 32.8125 28.1641 23.2422 31.8555 19.5508C35.6836 15.7227 34.4531 9.16016 37.0508 6.5625C43.4766 6.5625 43.4766 11.0742 43.4766 14.3555C43.4766 19.6875 39.6484 22.1484 39.6484 27.3438H53.8672C56.7383 27.3438 58.9258 29.9414 59.0625 32.5391C59.0625 35 57.2852 37.5977 55.918 37.5977C57.832 39.6484 58.2422 43.8867 55.2344 46.6211ZM12.0312 59.0625C12.0312 60.9766 10.5273 62.3438 8.75 62.3438C6.83594 62.3438 5.46875 60.9766 5.46875 59.0625C5.46875 57.2852 6.83594 55.7812 8.75 55.7812C10.5273 55.7812 12.0312 57.2852 12.0312 59.0625Z" fill="#18A0FB"/>
</svg>
