<svg width="18" height="13" viewBox="0 0 18 13" fill="none" xmlns="http://www.w3.org/2000/svg">
<path d="M17.6081 0.361294C17.5211 0.328791 17.4374 0.312471 17.357 0.312471C17.1761 0.312471 17.0256 0.374466 16.905 0.498113L12.857 4.42499V2.81327C12.857 2.03823 12.574 1.37572 12.0082 0.825398C11.4423 0.275144 10.7611 0 9.96406 0H2.89278C2.09599 0 1.41459 0.275144 0.848653 0.825398C0.282931 1.37572 0 2.03823 0 2.81327V9.69002C0 10.465 0.282931 11.1275 0.848688 11.6778C1.41462 12.228 2.09602 12.5032 2.89282 12.5032H9.96413C10.7611 12.5032 11.4424 12.228 12.0083 11.6778C12.5741 11.1275 12.857 10.465 12.857 9.69002V8.06841L16.9051 12.005C17.0257 12.1286 17.1762 12.1906 17.357 12.1906C17.4375 12.1906 17.5212 12.1743 17.6082 12.1419C17.8695 12.0311 18 11.8391 18 11.5656V0.937755C17.9999 0.664116 17.8694 0.472042 17.6081 0.361294Z" fill="#18A0FB"/>
</svg>
