<svg width="22" height="15" viewBox="0 0 22 15" fill="none" xmlns="http://www.w3.org/2000/svg">
<path d="M6.97961 1.63048C6.84056 1.77376 6.65097 1.8544 6.45314 1.8544H5.74829C4.8607 1.8544 3.97942 2.00626 3.14126 2.30366C1.54 2.87181 0.374718 4.28965 0.107759 5.99463L0.100583 6.04047C-0.0335278 6.89699 -0.0335276 7.76974 0.100583 8.62626L0.107759 8.67209C0.374718 10.3771 1.54 11.7949 3.14126 12.3631C3.97942 12.6605 4.8607 12.8123 5.74829 12.8123H6.45314C6.65097 12.8123 6.84057 12.893 6.97961 13.0363L7.49683 13.5692C9.48969 15.6227 12.9226 14.6514 13.5891 11.8454C14.2935 8.88012 14.2935 5.78661 13.5891 2.82132C12.9226 0.0153413 9.48969 -0.955992 7.49682 1.09752L6.97961 1.63048Z" fill="white"/>
<path d="M18.2324 1.01166C18.5331 0.644877 19.0689 0.595745 19.4292 0.901923C21.0223 2.25597 22.0001 4.67925 22.0001 7.33338C22.0001 9.98751 21.0223 12.4108 19.4292 13.7648C19.0689 14.071 18.5331 14.0219 18.2324 13.6551C17.9317 13.2883 17.9799 12.7428 18.3402 12.4366C19.456 11.4882 20.3008 9.6081 20.3008 7.33338C20.3008 5.05866 19.456 3.17854 18.3402 2.23017C17.9799 1.92399 17.9317 1.37844 18.2324 1.01166Z" fill="white"/>
<path d="M17.0908 4.30702C16.7005 4.04168 16.1729 4.14868 15.9123 4.546C15.6517 4.94333 15.7568 5.48053 16.147 5.74587C16.5684 6.03236 16.9021 6.61145 16.9021 7.33338C16.9021 8.05531 16.5684 8.6344 16.147 8.92089C15.7568 9.18623 15.6517 9.72342 15.9123 10.1208C16.1729 10.5181 16.7005 10.6251 17.0908 10.3597C18.0239 9.72526 18.6014 8.58299 18.6014 7.33338C18.6014 6.08377 18.0239 4.9415 17.0908 4.30702Z" fill="white"/>
</svg>
