<svg width="21" height="24" viewBox="0 0 21 24" fill="none" xmlns="http://www.w3.org/2000/svg">
<path fill-rule="evenodd" clip-rule="evenodd" d="M8.64395 5.6491H15.4133C19.0478 5.6491 20.416 7.48908 20.2046 10.1923C19.8551 14.6551 17.1572 17.1241 13.5785 17.1241H11.7718C11.2807 17.1241 10.9505 17.4491 10.8177 18.3298L10.0506 23.4496C9.99991 23.7816 9.82518 23.9738 9.56307 24H5.30997C4.90982 24 4.76828 23.6942 4.87312 23.032L7.46623 6.6189C7.56757 5.96189 7.92753 5.6491 8.64395 5.6491Z" fill="#009EE3"/>
<path fill-rule="evenodd" clip-rule="evenodd" d="M4.41007 0H11.1864C13.0945 0 15.3591 0.061158 16.8723 1.3979C17.8841 2.2908 18.4153 3.71142 18.2929 5.24212C17.8771 10.4161 14.7825 13.315 10.6307 13.315H7.28974C6.7201 13.315 6.34441 13.6924 6.18365 14.7129L5.25056 20.6539C5.1894 21.0384 5.0234 21.2655 4.72635 21.2935H0.544886C0.0818329 21.2935 -0.0824217 20.944 0.038147 20.1717L3.04363 1.1288C3.16419 0.363452 3.58531 0 4.41007 0Z" fill="#113984"/>
<path fill-rule="evenodd" clip-rule="evenodd" d="M6.28129 14.1099L7.46426 6.61893C7.56736 5.96192 7.92732 5.64739 8.64374 5.64739H15.4131C16.5331 5.64739 17.44 5.82213 18.1494 6.14539C17.4697 10.7515 14.4904 13.3096 10.5903 13.3096H7.25458C6.80725 13.3114 6.47875 13.535 6.28129 14.1099Z" fill="#172C70"/>
</svg>
