<svg width="31" height="31" viewBox="0 0 31 31" fill="none" xmlns="http://www.w3.org/2000/svg">
<rect width="31" height="31" rx="5" fill="#18A0FB" fill-opacity="0.1"/>
<path d="M23.3102 15.1614C23.1763 15.1614 23.0678 15.2733 23.0678 15.4113V21.6278C23.0678 21.9237 22.8341 22.1644 22.547 22.1644H8.00571C7.71856 22.1644 7.48494 21.9237 7.48494 21.6278V20.639C7.48494 20.501 7.37638 20.3892 7.24247 20.3892C7.10856 20.3892 7 20.501 7 20.639V21.6278C7 22.1992 7.45116 22.664 8.00571 22.664H22.547C23.1015 22.664 23.5527 22.1992 23.5527 21.6278V15.4113C23.5527 15.2733 23.4442 15.1614 23.3102 15.1614Z" fill="#18A0FB"/>
<path d="M22.547 10.3241H22.3703V9.67958H22.9869C23.1209 9.67958 23.2294 9.56773 23.2294 9.42976C23.2294 9.2918 23.1209 9.17995 22.9869 9.17995H22.3703V8.93013C22.3703 8.79216 22.2618 8.68031 22.1279 8.68031C21.9939 8.68031 21.8854 8.79216 21.8854 8.93013V9.17995H20.2079V8.93013C20.2079 8.79216 20.0993 8.68031 19.9654 8.68031C19.8315 8.68031 19.7229 8.79216 19.7229 8.93013V9.17995H18.0454V8.93013C18.0454 8.79216 17.9369 8.68031 17.8029 8.68031C17.669 8.68031 17.5605 8.79216 17.5605 8.93013V9.17995H16.643C16.528 8.5103 15.959 8 15.2765 8C14.594 8 14.025 8.51026 13.91 9.17995H12.9922V8.93013C12.9922 8.79216 12.8836 8.68031 12.7497 8.68031C12.6158 8.68031 12.5072 8.79216 12.5072 8.93013V9.17995H10.8297V8.93013C10.8297 8.79216 10.7212 8.68031 10.5873 8.68031C10.4533 8.68031 10.3448 8.79216 10.3448 8.93013V9.17995H8.66733V8.93013C8.66733 8.79216 8.55877 8.68031 8.42486 8.68031C8.29095 8.68031 8.18239 8.79216 8.18239 8.93013V9.17995H7.56577C7.43186 9.17995 7.3233 9.2918 7.3233 9.42976C7.3233 9.56773 7.43186 9.67958 7.56577 9.67958H8.18239V10.3241H8.00574C7.45116 10.3241 7 10.7889 7 11.3603V19.4858C7 19.6237 7.10856 19.7356 7.24247 19.7356C7.37638 19.7356 7.48494 19.6237 7.48494 19.4858V12.8889H9.86355C9.99746 12.8889 10.106 12.7771 10.106 12.6391C10.106 12.5011 9.99746 12.3893 9.86355 12.3893H7.48494V11.3603C7.48494 11.0645 7.71856 10.8238 8.00571 10.8238H8.18236V11.0736C8.18236 11.2115 8.29092 11.3234 8.42483 11.3234C8.55874 11.3234 8.6673 11.2115 8.6673 11.0736V10.8238H10.3448V11.0736C10.3448 11.2115 10.4534 11.3234 10.5873 11.3234C10.7212 11.3234 10.8298 11.2115 10.8298 11.0736V10.8238H12.5073V11.0736C12.5073 11.2115 12.6158 11.3234 12.7497 11.3234C12.8836 11.3234 12.9922 11.2115 12.9922 11.0736V10.8238H14.3463C14.6 11.0594 14.9333 11.1926 15.2765 11.1926C15.6197 11.1926 15.953 11.0594 16.2067 10.8238H17.5604V11.0736C17.5604 11.2115 17.669 11.3234 17.8029 11.3234C17.9369 11.3234 18.0454 11.2115 18.0454 11.0736V10.8238H19.7229V11.0736C19.7229 11.2115 19.8314 11.3234 19.9654 11.3234C20.0993 11.3234 20.2078 11.2115 20.2078 11.0736V10.8238H21.8854V11.0736C21.8854 11.2115 21.9939 11.3234 22.1278 11.3234C22.2618 11.3234 22.3703 11.2115 22.3703 11.0736V10.8238H22.547C22.8341 10.8238 23.0677 11.0645 23.0677 11.3603V12.3893H10.976C10.8421 12.3893 10.7335 12.5011 10.7335 12.6391C10.7335 12.7771 10.8421 12.8889 10.976 12.8889H23.0678V14.2519C23.0678 14.3899 23.1763 14.5018 23.3102 14.5018C23.4442 14.5018 23.5527 14.3899 23.5527 14.2519V11.3603C23.5527 10.7889 23.1016 10.3241 22.547 10.3241ZM8.66733 10.3241V9.67958H10.3448V10.3241H8.66733ZM10.8298 10.3241V9.67958H12.5073V10.3241H10.8298ZM16.1083 10.3241C16.0416 10.3241 15.978 10.3524 15.9322 10.4022C15.7599 10.5897 15.527 10.693 15.2765 10.693C15.026 10.693 14.7932 10.5897 14.6208 10.4022C14.575 10.3524 14.5114 10.3241 14.4448 10.3241H12.9922V9.67958H14.1313C14.2652 9.67958 14.3737 9.56773 14.3737 9.42976C14.3737 8.9169 14.7787 8.49964 15.2765 8.49964C15.7743 8.49964 16.1793 8.91687 16.1793 9.42976C16.1793 9.56773 16.2878 9.67958 16.4218 9.67958H17.5605V10.3241H16.1083ZM18.0454 10.3241V9.67958H19.7229V10.3241H18.0454ZM20.2079 10.3241V9.67958H21.8854V10.3241H20.2079Z" fill="#18A0FB"/>
<path d="M8.52751 15.8147H10.0906C10.2245 15.8147 10.3331 15.7029 10.3331 15.5649V13.9545C10.3331 13.8165 10.2245 13.7046 10.0906 13.7046H8.52751C8.3936 13.7046 8.28503 13.8165 8.28503 13.9545V15.5649C8.28503 15.7029 8.39356 15.8147 8.52751 15.8147ZM8.76998 14.2043H9.84813V15.3151H8.76998V14.2043Z" fill="#18A0FB"/>
<path d="M20.4626 15.8147H22.0257C22.1596 15.8147 22.2682 15.7029 22.2682 15.5649V13.9545C22.2682 13.8165 22.1596 13.7046 22.0257 13.7046H20.4626C20.3286 13.7046 20.2201 13.8165 20.2201 13.9545V15.5649C20.2201 15.7029 20.3286 15.8147 20.4626 15.8147ZM20.705 14.2043H21.7832V15.3151H20.705V14.2043Z" fill="#18A0FB"/>
<path d="M14.4945 15.8147H16.0576C16.1916 15.8147 16.3001 15.7029 16.3001 15.5649V13.9545C16.3001 13.8165 16.1916 13.7046 16.0576 13.7046H14.4945C14.3606 13.7046 14.2521 13.8165 14.2521 13.9545V15.5649C14.2521 15.7029 14.3606 15.8147 14.4945 15.8147ZM14.737 14.2043H15.8152V15.3151H14.737V14.2043Z" fill="#18A0FB"/>
<path d="M11.511 15.8147H13.0741C13.208 15.8147 13.3166 15.7029 13.3166 15.5649V13.9545C13.3166 13.8165 13.208 13.7046 13.0741 13.7046H11.511C11.3771 13.7046 11.2686 13.8165 11.2686 13.9545V15.5649C11.2686 15.7029 11.3771 15.8147 11.511 15.8147ZM11.7535 14.2043H12.8317V15.3151H11.7535V14.2043Z" fill="#18A0FB"/>
<path d="M17.4786 15.8147H19.0417C19.1756 15.8147 19.2841 15.7029 19.2841 15.5649V13.9545C19.2841 13.8165 19.1756 13.7046 19.0417 13.7046H17.4786C17.3446 13.7046 17.2361 13.8165 17.2361 13.9545V15.5649C17.2361 15.7029 17.3446 15.8147 17.4786 15.8147ZM17.721 14.2043H18.7992V15.3151H17.721V14.2043Z" fill="#18A0FB"/>
<path d="M8.28455 21.0408C8.28455 21.1788 8.39311 21.2906 8.52702 21.2906H10.0901C10.224 21.2906 10.3326 21.1788 10.3326 21.0408V19.4304C10.3326 19.2924 10.224 19.1805 10.0901 19.1805H8.52702C8.39311 19.1805 8.28455 19.2924 8.28455 19.4304V21.0408ZM8.76949 19.6802H9.84765V20.791H8.76949V19.6802Z" fill="#18A0FB"/>
<path d="M20.2196 21.0408C20.2196 21.1788 20.3281 21.2906 20.4621 21.2906H22.0252C22.1592 21.2906 22.2677 21.1788 22.2677 21.0408V19.4304C22.2677 19.2924 22.1592 19.1805 22.0252 19.1805H20.4621C20.3281 19.1805 20.2196 19.2924 20.2196 19.4304V21.0408ZM20.7045 19.6802H21.7827V20.791H20.7045V19.6802Z" fill="#18A0FB"/>
<path d="M14.2516 21.0408C14.2516 21.1788 14.3601 21.2906 14.4941 21.2906H16.0572C16.1911 21.2906 16.2996 21.1788 16.2996 21.0408V19.4304C16.2996 19.2924 16.1911 19.1805 16.0572 19.1805H14.4941C14.3601 19.1805 14.2516 19.2924 14.2516 19.4304V21.0408ZM14.7365 19.6802H15.8147V20.791H14.7365V19.6802Z" fill="#18A0FB"/>
<path d="M11.2681 21.0408C11.2681 21.1788 11.3766 21.2906 11.5105 21.2906H13.0736C13.2075 21.2906 13.3161 21.1788 13.3161 21.0408V19.4304C13.3161 19.2924 13.2075 19.1805 13.0736 19.1805H11.5105C11.3766 19.1805 11.2681 19.2924 11.2681 19.4304V21.0408ZM11.753 19.6802H12.8312V20.791H11.753V19.6802Z" fill="#18A0FB"/>
<path d="M17.2356 21.0408C17.2356 21.1788 17.3441 21.2906 17.4781 21.2906H19.0412C19.1751 21.2906 19.2836 21.1788 19.2836 21.0408V19.4304C19.2836 19.2924 19.1751 19.1805 19.0412 19.1805H17.4781C17.3441 19.1805 17.2356 19.2924 17.2356 19.4304V21.0408ZM17.7205 19.6802H18.7987V20.791H17.7205V19.6802Z" fill="#18A0FB"/>
<path d="M8.28455 18.3028C8.28455 18.4408 8.39311 18.5526 8.52702 18.5526H10.0901C10.224 18.5526 10.3326 18.4408 10.3326 18.3028V16.6924C10.3326 16.5544 10.224 16.4425 10.0901 16.4425H8.52702C8.39311 16.4425 8.28455 16.5544 8.28455 16.6924V18.3028ZM8.76949 16.9422H9.84765V18.053H8.76949V16.9422Z" fill="#18A0FB"/>
<path d="M20.2196 18.3028C20.2196 18.4408 20.3281 18.5526 20.4621 18.5526H22.0252C22.1592 18.5526 22.2677 18.4408 22.2677 18.3028V16.6924C22.2677 16.5544 22.1592 16.4425 22.0252 16.4425H20.4621C20.3281 16.4425 20.2196 16.5544 20.2196 16.6924V18.3028ZM20.7045 16.9422H21.7827V18.053H20.7045V16.9422Z" fill="#18A0FB"/>
<path d="M14.2516 18.3028C14.2516 18.4408 14.3601 18.5526 14.4941 18.5526H16.0572C16.1911 18.5526 16.2996 18.4408 16.2996 18.3028V16.6924C16.2996 16.5544 16.1911 16.4425 16.0572 16.4425H14.4941C14.3601 16.4425 14.2516 16.5544 14.2516 16.6924V18.3028ZM14.7365 16.9422H15.8147V18.053H14.7365V16.9422Z" fill="#18A0FB"/>
<path d="M11.2681 18.3028C11.2681 18.4408 11.3766 18.5526 11.5105 18.5526H13.0736C13.2075 18.5526 13.3161 18.4408 13.3161 18.3028V16.6924C13.3161 16.5544 13.2075 16.4425 13.0736 16.4425H11.5105C11.3766 16.4425 11.2681 16.5544 11.2681 16.6924V18.3028ZM11.753 16.9422H12.8312V18.053H11.753V16.9422Z" fill="#18A0FB"/>
<path d="M17.2356 18.3028C17.2356 18.4408 17.3441 18.5526 17.4781 18.5526H19.0412C19.1751 18.5526 19.2836 18.4408 19.2836 18.3028V16.6924C19.2836 16.5544 19.1751 16.4425 19.0412 16.4425H17.4781C17.3441 16.4425 17.2356 16.5544 17.2356 16.6924V18.3028ZM17.7205 16.9422H18.7987V18.053H17.7205V16.9422Z" fill="#18A0FB"/>
</svg>
