<svg width="111" height="145" viewBox="0 0 111 145" fill="none" xmlns="http://www.w3.org/2000/svg">
<path d="M88.0109 96.3431C72.2521 94.1605 77.3079 94.8609 76.2741 94.7176C75.3774 94.5929 74.5186 94.3635 73.7123 94.035H37.281C36.4748 94.3635 35.616 94.5929 34.7192 94.7176C33.6969 94.8592 38.7412 94.1605 22.9824 96.3431C11.4676 97.9376 2.91772 107.496 2.91772 118.77V142.168H108.076V118.77C108.076 107.496 99.5257 97.9376 88.0109 96.3431Z" fill="#B3F1FF"/>
<path d="M55.4948 2.83252C36.137 2.83252 20.4421 18.049 20.4421 36.8169L20.9504 48.145H90.0391L90.5474 36.8169C90.5474 18.049 74.8526 2.83252 55.4948 2.83252Z" fill="#C1B0B5"/>
<path d="M90.0223 48.5077L90.0398 48.1452C83.8647 48.1198 78.8639 43.2543 78.8639 37.2618V36.8171H68.5642C60.5547 36.8171 53.2345 32.4331 49.6533 25.489C49.6533 31.745 44.4217 36.8171 37.9691 36.8171H32.127V37.2618C32.127 43.2543 27.1262 48.1198 20.9511 48.1452L20.9686 48.5077C17.3027 49.5216 14.6007 52.7615 14.6007 56.6413C14.6007 61.334 18.5237 65.1374 23.3639 65.1374H26.4689C30.6344 73.2852 36.6985 80.5578 43.8141 84.551L43.8112 84.5538C43.8112 88.782 41.156 92.4807 37.2798 94.0354L55.4954 116.114L73.7111 94.0354C69.8349 92.4807 67.1796 88.782 67.1796 84.5538L67.1767 84.551C74.2924 80.5578 80.3565 73.2852 84.5219 65.1374H87.627C92.4672 65.1374 96.3902 61.334 96.3902 56.6413C96.3902 52.7615 93.6882 49.5216 90.0223 48.5077Z" fill="#FCE8D0"/>
<path d="M84.7067 130.84C87.9332 130.84 90.5488 128.304 90.5488 125.176C90.5488 122.048 87.9332 119.512 84.7067 119.512C81.4802 119.512 78.8646 122.048 78.8646 125.176C78.8646 128.304 81.4802 130.84 84.7067 130.84Z" fill="#F3EFF0"/>
<path d="M67.1847 53.8087C68.798 53.8087 70.1058 52.5408 70.1058 50.9767C70.1058 49.4126 68.798 48.1447 67.1847 48.1447C65.5715 48.1447 64.2637 49.4126 64.2637 50.9767C64.2637 52.5408 65.5715 53.8087 67.1847 53.8087Z" fill="#202244"/>
<path d="M43.8151 53.8087C45.4283 53.8087 46.7361 52.5408 46.7361 50.9767C46.7361 49.4126 45.4283 48.1447 43.8151 48.1447C42.2018 48.1447 40.894 49.4126 40.894 50.9767C40.894 52.5408 42.2018 53.8087 43.8151 53.8087Z" fill="#202244"/>
<path d="M55.4986 79.2964C60.4407 79.2964 64.8685 76.2616 66.5162 71.7446C67.054 70.2699 66.2571 68.6517 64.7362 68.1303C63.216 67.6095 61.5464 68.3815 61.0083 69.8562C60.1846 72.115 57.9701 73.6324 55.4986 73.6324C53.0271 73.6324 50.8127 72.115 49.9889 69.8562C49.4512 68.3815 47.7821 67.6095 46.2611 68.1303C44.7401 68.6517 43.9432 70.2699 44.481 71.7446C46.1288 76.2616 50.5565 79.2964 55.4986 79.2964Z" fill="#202244"/>
<path d="M84.7123 145C86.3256 145 87.6334 143.732 87.6334 142.168C87.6334 140.604 86.3256 139.336 84.7123 139.336C83.0991 139.336 81.7913 140.604 81.7913 142.168C81.7913 143.732 83.0991 145 84.7123 145Z" fill="#202244"/>
<path d="M97.8553 139.336C96.242 139.336 94.9342 140.604 94.9342 142.168C94.9342 143.732 96.242 145 97.8553 145H108.079C109.692 145 111 143.732 111 142.168V118.77C111 106.076 101.364 95.3306 88.4284 93.5394L76.6922 91.9141C73.513 91.4711 70.9074 89.1506 70.2609 86.0305C76.4177 82.1042 82.031 75.7919 86.311 67.9687H87.6316C94.0742 67.9687 99.3158 62.8869 99.3158 56.6406C99.3158 52.4067 96.8235 48.5628 93.0355 46.639C93.0355 46.639 93.4737 36.8574 93.4737 36.8164C93.4737 16.5155 76.4387 0 55.5 0C34.5613 0 17.5263 16.5155 17.5263 36.8164C17.5263 36.8574 17.5272 36.8985 17.5289 36.9396L17.9642 46.639C14.1765 48.5628 11.6842 52.4067 11.6842 56.6406C11.6842 62.8869 16.9257 67.9687 23.3684 67.9687H24.689C28.9692 75.7925 34.5829 82.1048 40.739 86.0305C40.0967 89.1282 37.5019 91.4689 34.3101 91.9138L22.5727 93.5394C9.61406 95.3335 0 106.097 0 118.77V142.168C0 143.732 1.30776 145 2.92105 145H71.5658C73.1791 145 74.4868 143.732 74.4868 142.168C74.4868 140.604 73.1791 139.336 71.5658 139.336H58.4211V117.106L74.7503 97.3142C75.1175 97.3957 75.4882 97.4685 75.8647 97.5206L81.7895 98.3414V117.167C78.3897 118.336 75.9474 121.484 75.9474 125.176C75.9474 129.86 79.8785 133.672 84.7105 133.672C89.5425 133.672 93.4737 129.86 93.4737 125.176C93.4737 121.484 91.0314 118.336 87.6316 117.167V99.1513C97.6254 100.55 105.158 108.978 105.158 118.77V139.336H97.8553ZM55.5 111.579L41.653 94.7959C43.6846 93.2307 45.2012 91.1336 46.0273 88.7561C49.1447 89.9957 52.3172 90.6249 55.5 90.6249C58.6828 90.6249 61.855 89.9954 64.9724 88.7564C65.799 91.1358 67.3159 93.2341 69.3464 94.7982L55.5 111.579ZM55.5 5.66406C73.1969 5.66406 87.5983 19.6059 87.6316 36.7561L87.2691 44.8307C84.0781 43.7059 81.7895 40.7336 81.7895 37.261V36.8164C81.7895 35.2525 80.4817 33.9843 78.8684 33.9843H68.5688C61.6211 33.9843 55.3759 30.2435 52.2705 24.2218C51.6647 23.0471 50.3046 22.4308 48.9866 22.7318C47.6684 23.0337 46.7368 24.1748 46.7368 25.4883C46.7368 30.173 42.8057 33.9843 37.9737 33.9843H32.1316C30.5183 33.9843 29.2105 35.2525 29.2105 36.8164V37.261C29.2105 40.7353 26.9193 43.709 23.7318 44.8324L23.3684 36.7561C23.4017 19.6059 37.8031 5.66406 55.5 5.66406ZM29.0908 63.879C28.5977 62.9149 27.5835 62.3046 26.4735 62.3046H23.3684C20.1471 62.3046 17.5263 59.7637 17.5263 56.6406C17.5263 52.1306 21.9596 51.2609 22.5645 50.8794C28.7662 50.1719 33.7609 45.5512 34.8373 39.6484H37.9737C43.5482 39.6484 48.4036 36.6045 50.8643 32.1413C55.3434 36.8761 61.6955 39.6484 68.5688 39.6484H76.1627C77.2385 45.547 82.2285 50.1657 88.4334 50.878C89.022 51.2501 93.4737 52.1507 93.4737 56.6406C93.4737 59.7637 90.8529 62.3046 87.6316 62.3046H84.5265C83.4165 62.3046 82.4023 62.9147 81.9092 63.879C76.7691 73.933 67.084 84.9609 55.5 84.9609C43.9496 84.9609 34.3092 74.0864 29.0908 63.879ZM5.8421 139.336V118.77C5.8421 108.979 13.374 100.551 23.3684 99.1516V107.902C16.7099 109.218 11.6842 114.939 11.6842 121.777V130.84C11.6842 132.404 12.992 133.672 14.6053 133.672H20.4474C22.0607 133.672 23.3684 132.404 23.3684 130.84C23.3684 129.276 22.0607 128.008 20.4474 128.008H17.5263V121.777C17.5263 117.093 21.4575 113.281 26.2895 113.281C31.1215 113.281 35.0526 117.093 35.0526 121.777V128.008H32.1316C30.5183 128.008 29.2105 129.276 29.2105 130.84C29.2105 132.404 30.5183 133.672 32.1316 133.672H37.9737C39.587 133.672 40.8947 132.404 40.8947 130.84V121.777C40.8947 114.939 35.8691 109.218 29.2105 107.902V98.3416L35.1373 97.5206C35.513 97.4682 35.8828 97.396 36.2488 97.3148L52.5789 117.106V139.336H5.8421ZM84.7105 128.008C83.0999 128.008 81.7895 126.737 81.7895 125.176C81.7895 123.614 83.0999 122.344 84.7105 122.344C86.3212 122.344 87.6316 123.614 87.6316 125.176C87.6316 126.737 86.3212 128.008 84.7105 128.008Z" fill="#202244"/>
</svg>
