<svg width="20" height="24" viewBox="0 0 20 24" fill="none" xmlns="http://www.w3.org/2000/svg">
<path fill-rule="evenodd" clip-rule="evenodd" d="M11.0347 2.0745C12.6468 0.00979094 14.8876 0 14.8876 0C14.8876 0 15.2209 1.94095 13.6197 3.81102C11.9097 5.80759 9.9663 5.48097 9.9663 5.48097C9.9663 5.48097 9.60157 3.91011 11.0347 2.0745Z" fill="#999999"/>
<path fill-rule="evenodd" clip-rule="evenodd" d="M10.1715 6.84022C11.0009 6.84022 12.5396 5.73267 14.5431 5.73267C17.9913 5.73267 19.3479 8.11695 19.3479 8.11695C19.3479 8.11695 16.6948 9.43521 16.6948 12.6337C16.6948 16.2419 20 17.4853 20 17.4853C20 17.4853 17.6895 23.8048 14.5689 23.8048C13.1353 23.8048 12.0214 22.866 10.5108 22.866C8.97169 22.866 7.44464 23.8396 6.44998 23.8396C3.6002 23.8396 0 17.8452 0 13.0265C0 8.28575 3.04725 5.79885 5.90549 5.79885C7.76343 5.79885 9.20544 6.84022 10.1715 6.84022Z" fill="#999999"/>
</svg>
