<svg width="26" height="24" viewBox="0 0 26 24" fill="none" xmlns="http://www.w3.org/2000/svg">
<path d="M22.0094 19.3125H21.447C20.3277 17.3595 19.7378 15.1705 19.7378 12.9552V9.70312C19.7378 7.04142 17.9587 4.75847 15.4469 3.82514V2.34375C15.4469 1.05141 14.3146 0 12.9229 0C11.5311 0 10.3988 1.05141 10.3988 2.34375V3.82514C7.88699 4.75847 6.10795 7.04138 6.10795 9.70312V12.9552C6.10795 15.1704 5.51798 17.3595 4.39867 19.3125H3.83631C3.41813 19.3125 3.0791 19.6273 3.0791 20.0156C3.0791 20.4039 3.41813 20.7188 3.83631 20.7188H8.70024C9.05905 22.5814 10.8153 24 12.9229 24C15.0304 24 16.7866 22.5814 17.1455 20.7188H22.0094C22.4276 20.7188 22.7666 20.4039 22.7666 20.0156C22.7666 19.6273 22.4276 19.3125 22.0094 19.3125ZM11.9132 2.34375C11.9132 1.82681 12.3662 1.40625 12.9229 1.40625C13.4796 1.40625 13.9325 1.82681 13.9325 2.34375V3.44456C13.6029 3.39891 13.2659 3.375 12.9229 3.375C12.5798 3.375 12.2428 3.39891 11.9132 3.44456V2.34375ZM7.62237 9.70312C7.62237 6.9892 10.0002 4.78125 12.9229 4.78125C15.8455 4.78125 18.2233 6.9892 18.2233 9.70312V12.9552C18.2233 13.9916 18.3403 15.0228 18.5691 16.0312H7.27658C7.50536 15.0229 7.62237 13.9916 7.62237 12.9552V9.70312ZM6.87975 17.4375H18.966C19.1827 18.0773 19.4455 18.704 19.7536 19.3125H6.0921C6.40018 18.704 6.66309 18.0773 6.87975 17.4375ZM12.9229 22.5938C11.6544 22.5938 10.5828 21.7995 10.2522 20.7188H15.5934C15.2629 21.7995 14.1913 22.5938 12.9229 22.5938Z" fill="#18A0FB"/>
<path d="M24.2956 8.51979C23.9999 8.24519 23.5204 8.24519 23.2247 8.51979C22.929 8.79438 22.929 9.23955 23.2247 9.51415C23.9385 10.1769 24.3316 11.0598 24.3316 12.0001C24.3316 12.9404 23.9385 13.8232 23.2247 14.486C22.929 14.7606 22.929 15.2058 23.2247 15.4804C23.3726 15.6176 23.5663 15.6863 23.7601 15.6863C23.9539 15.6863 24.1477 15.6176 24.2955 15.4804C25.2954 14.552 25.846 13.316 25.846 12.0001C25.846 10.6841 25.2954 9.44815 24.2956 8.51979Z" fill="#18A0FB"/>
<path d="M21.0834 10.5084C20.7876 10.783 20.7876 11.2282 21.0834 11.5028C21.2264 11.6356 21.3052 11.8122 21.3052 12C21.3052 12.1878 21.2264 12.3644 21.0834 12.4972C20.7876 12.7718 20.7876 13.217 21.0834 13.4916C21.2312 13.6289 21.425 13.6975 21.6188 13.6975C21.8125 13.6975 22.0063 13.6289 22.1542 13.4916C23.0399 12.6691 23.0399 11.3309 22.1542 10.5084C21.8585 10.2338 21.3791 10.2338 21.0834 10.5084Z" fill="#18A0FB"/>
<path d="M2.62126 8.51971C2.3256 8.24516 1.84618 8.24512 1.55042 8.51971C0.550594 9.44807 0 10.6841 0 12C0 13.3159 0.550594 14.5519 1.55042 15.4803C1.69827 15.6176 1.89207 15.6862 2.08581 15.6862C2.27956 15.6862 2.47341 15.6176 2.62121 15.4803C2.91693 15.2057 2.91693 14.7605 2.62121 14.4859C1.90752 13.8231 1.51442 12.9403 1.51442 12C1.51442 11.0597 1.90752 10.1768 2.62126 9.51407C2.91698 9.23947 2.91698 8.7943 2.62126 8.51971Z" fill="#18A0FB"/>
<path d="M4.22758 13.6975C4.42138 13.6975 4.61517 13.6289 4.76298 13.4916C5.0587 13.217 5.0587 12.7718 4.76298 12.4972C4.61997 12.3644 4.54117 12.1878 4.54117 12C4.54117 11.8122 4.61997 11.6356 4.76298 11.5028C5.0587 11.2282 5.0587 10.783 4.76298 10.5084C4.46732 10.2338 3.98785 10.2338 3.69213 10.5084C2.8064 11.3309 2.8064 12.6691 3.69213 13.4916C3.83999 13.6289 4.03379 13.6975 4.22758 13.6975Z" fill="#18A0FB"/>
</svg>
