<svg width="26" height="24" viewBox="0 0 26 24" fill="none" xmlns="http://www.w3.org/2000/svg">
<path d="M8.78364 11.25H3.33173C1.49458 11.25 0 9.86216 0 8.15624V3.09375C0 1.38783 1.49458 0 3.33173 0H8.78364C10.6208 0 12.1154 1.38783 12.1154 3.09375V8.15624C12.1154 9.86216 10.6208 11.25 8.78364 11.25ZM3.33173 1.5C2.38531 1.5 1.61538 2.21493 1.61538 3.09375V8.15624C1.61538 9.03505 2.38531 9.74999 3.33173 9.74999H8.78364C9.73005 9.74999 10.5 9.03505 10.5 8.15624V3.09375C10.5 2.21493 9.73005 1.5 8.78364 1.5H3.33173Z" fill="#202244"/>
<path d="M22.5144 11.25H17.0624C15.2253 11.25 13.7307 9.86216 13.7307 8.15624V3.09375C13.7307 1.38783 15.2253 0 17.0624 0H22.5144C24.3515 0 25.8461 1.38783 25.8461 3.09375V8.15624C25.8461 9.86216 24.3515 11.25 22.5144 11.25ZM17.0624 1.5C16.116 1.5 15.3461 2.21493 15.3461 3.09375V8.15624C15.3461 9.03505 16.116 9.74999 17.0624 9.74999H22.5144C23.4608 9.74999 24.2307 9.03505 24.2307 8.15624V3.09375C24.2307 2.21493 23.4608 1.5 22.5144 1.5H17.0624Z" fill="#202244"/>
<path d="M19.7884 24C16.4482 24 13.7307 21.4766 13.7307 18.375C13.7307 15.2734 16.4482 12.75 19.7884 12.75C23.1286 12.75 25.8461 15.2734 25.8461 18.375C25.8461 21.4766 23.1286 24 19.7884 24ZM19.7884 14.25C17.3389 14.25 15.3461 16.1005 15.3461 18.375C15.3461 20.6495 17.3389 22.5 19.7884 22.5C22.2379 22.5 24.2307 20.6495 24.2307 18.375C24.2307 16.1005 22.2379 14.25 19.7884 14.25Z" fill="#202244"/>
<path d="M8.78364 24H3.33173C1.49458 24 0 22.6121 0 20.9062V15.8437C0 14.1378 1.49458 12.75 3.33173 12.75H8.78364C10.6208 12.75 12.1154 14.1378 12.1154 15.8437V20.9062C12.1154 22.6121 10.6208 24 8.78364 24ZM3.33173 14.25C2.38531 14.25 1.61538 14.9649 1.61538 15.8437V20.9062C1.61538 21.785 2.38531 22.5 3.33173 22.5H8.78364C9.73005 22.5 10.5 21.785 10.5 20.9062V15.8437C10.5 14.9649 9.73005 14.25 8.78364 14.25H3.33173Z" fill="#202244"/>
</svg>
