<svg width="17" height="15" viewBox="0 0 17 15" fill="none" xmlns="http://www.w3.org/2000/svg">
<path d="M15.6514 1.41371C14.7714 0.502083 13.5639 0 12.251 0C11.2697 0 10.371 0.296319 9.57988 0.880658C9.18066 1.17561 8.81893 1.53648 8.5 1.95766C8.1812 1.5366 7.81934 1.17561 7.41999 0.880658C6.62895 0.296319 5.73026 0 4.74895 0C3.43613 0 2.2285 0.502083 1.34849 1.41371C0.478981 2.31468 0 3.54555 0 4.87973C0 6.25293 0.535789 7.50993 1.6861 8.83569C2.71513 10.0216 4.1941 11.2254 5.90678 12.6195C6.4916 13.0955 7.1545 13.6351 7.84281 14.2099C8.02465 14.3621 8.25798 14.4458 8.5 14.4458C8.74189 14.4458 8.97535 14.3621 9.15693 14.2102C9.84525 13.6353 10.5085 13.0954 11.0936 12.6191C12.806 11.2253 14.285 10.0216 15.314 8.83557C16.4643 7.50993 17 6.25293 17 4.87961C17 3.54555 16.521 2.31468 15.6514 1.41371Z" fill="white"/>
</svg>
