<svg width="279" height="22" viewBox="0 0 279 22" fill="none" xmlns="http://www.w3.org/2000/svg">
<path fill-rule="evenodd" clip-rule="evenodd" d="M271.715 0C273.634 0 275.189 1.55522 275.189 3.47368V11.5789C275.189 13.4974 273.634 15.0526 271.715 15.0526C269.797 15.0526 268.242 13.4974 268.242 11.5789V3.47368C268.242 1.55522 269.797 0 271.715 0Z" fill="white"/>
<path fill-rule="evenodd" clip-rule="evenodd" d="M277.794 7.52637C277.315 7.52637 276.926 7.91517 276.926 8.39479V11.579C276.926 14.4567 274.593 16.7895 271.715 16.7895C268.838 16.7895 266.505 14.4567 266.505 11.579V8.39479C266.505 7.91517 266.116 7.52637 265.636 7.52637C265.157 7.52637 264.768 7.91517 264.768 8.39479V11.579C264.77 15.0788 267.375 18.031 270.847 18.4685V20.2632H268.531C268.052 20.2632 267.663 20.652 267.663 21.1316C267.663 21.6112 268.052 22.0001 268.531 22.0001H274.9C275.379 22.0001 275.768 21.6112 275.768 21.1316C275.768 20.652 275.379 20.2632 274.9 20.2632H272.584V18.4685C276.056 18.031 278.661 15.0788 278.663 11.579V8.39479C278.663 7.91517 278.274 7.52637 277.794 7.52637V7.52637Z" fill="white"/>
<path d="M238.363 8.82246C238.363 8.82246 239.32 8.09489 238.591 7.36731C237.863 6.63973 237.155 7.57864 237.155 7.57864L229.833 14.902C229.833 14.902 228.118 17.1151 226.814 15.777C225.512 14.4372 227.688 12.7575 227.688 12.7575L237.289 3.1578C237.289 3.1578 239.529 0.689649 241.636 2.7944C243.739 4.89994 241.264 7.14506 241.264 7.14506L230.476 17.9324C230.476 17.9324 227.025 21.9197 223.83 18.7239C220.635 15.5282 224.661 12.1157 224.661 12.1157L232.851 3.92359C232.851 3.92359 233.768 3.1578 233.081 2.46843C232.391 1.77985 231.627 2.69848 231.627 2.69848L222.229 12.0962C222.229 12.0962 218.681 15.9867 222.643 19.9475C226.604 23.9106 230.497 20.3631 230.497 20.3631L243.414 7.44529C243.414 7.44529 245.998 4.59502 242.917 1.51237C239.836 -1.57029 236.985 1.01406 236.985 1.01406L225.871 12.1266C225.871 12.1266 223.024 14.4419 225.607 17.0231C228.19 19.6075 230.463 16.719 230.463 16.719L238.363 8.82246Z" fill="white"/>
<path d="M5.31244 4.96875H9.28119V3.84375H-5.72205e-05V4.96875H3.96869V15.25H5.31244V4.96875ZM13.5099 13.8438L10.7912 7.1875H9.41619L12.8224 15.1562L12.5099 15.875C12.2599 16.4688 11.9162 16.9062 11.5412 17.1875C11.1349 17.4688 10.5724 17.6875 9.82244 17.875L10.1037 18.875C11.8224 18.5625 13.0099 17.8125 13.7912 16L17.5412 7.1875H16.2599L13.5099 13.8438ZM26.3324 11.2188C26.3324 8.71875 24.8949 7 22.7387 7C21.4262 7 20.4262 7.65625 19.9574 8.75L19.8324 7.1875H18.6137C18.6762 7.875 18.7387 8.625 18.7387 9.46875V18.7188H20.0199V13.75C20.5199 14.7812 21.4887 15.375 22.7387 15.375C24.8949 15.375 26.3324 13.7188 26.3324 11.2188ZM24.9887 11.2188C24.9887 13.1875 24.0824 14.2812 22.5199 14.2812C20.9262 14.2812 20.0199 13.1562 20.0199 11.1875C20.0199 9.1875 20.9262 8.09375 22.5199 8.09375C24.0512 8.09375 24.9887 9.25 24.9887 11.2188ZM35.1862 10.9375C35.1862 8.5 33.9049 7 31.7799 7C29.5612 7 27.9987 8.71875 27.9987 11.1875C27.9987 13.7812 29.4987 15.375 32.0299 15.375C33.1549 15.375 34.3424 14.9375 35.0612 14.2812L34.6237 13.3438C33.8424 13.9688 32.9674 14.2812 32.0299 14.2812C30.2487 14.2812 29.3112 13.2188 29.3112 11.1875H35.1862V10.9375ZM29.3424 10.3438C29.5924 8.875 30.4362 8.03125 31.7799 8.03125C33.1237 8.03125 33.9049 8.8125 34.0299 10.3438H29.3424ZM48.7999 8.59375C48.2999 7.59375 47.3312 7 46.0812 7C43.9562 7 42.5187 8.71875 42.5187 11.2188C42.5187 13.7188 43.9249 15.375 46.0812 15.375C47.3312 15.375 48.3312 14.8125 48.7999 13.7812V15.25H50.0812V7.1875H48.7999V8.59375ZM48.7999 11.1875C48.7999 13.1562 47.9249 14.2812 46.3312 14.2812C44.7374 14.2812 43.8312 13.1875 43.8312 11.2188C43.8312 9.25 44.7374 8.09375 46.3312 8.09375C47.9249 8.09375 48.7999 9.1875 48.7999 11.1875ZM69.4762 10.1875C69.4762 8.0625 68.5699 7 66.8199 7C65.6012 7 64.6012 7.625 64.1324 8.5625C63.7262 7.5 62.9449 7 61.6637 7C60.4762 7 59.5699 7.59375 59.1012 8.625L58.9762 7.1875H57.7574C57.8199 7.875 57.8824 8.625 57.8824 9.46875V15.25H59.1637V10.6562C59.1637 9.0625 60.0074 8.09375 61.3824 8.09375C62.5387 8.09375 63.0387 8.78125 63.0387 10.25V15.25H64.3512V10.6562C64.3512 9.0625 65.1637 8.09375 66.5074 8.09375C67.6949 8.09375 68.1949 8.75 68.1949 10.25V15.25H69.4762V10.1875ZM78.3299 10.9375C78.3299 8.5 77.0487 7 74.9237 7C72.7049 7 71.1424 8.71875 71.1424 11.1875C71.1424 13.7812 72.6424 15.375 75.1737 15.375C76.2987 15.375 77.4862 14.9375 78.2049 14.2812L77.7674 13.3438C76.9862 13.9688 76.1112 14.2812 75.1737 14.2812C73.3924 14.2812 72.4549 13.2188 72.4549 11.1875H78.3299V10.9375ZM72.4862 10.3438C72.7362 8.875 73.5799 8.03125 74.9237 8.03125C76.2674 8.03125 77.0487 8.8125 77.1737 10.3438H72.4862ZM79.6212 14.3125C80.4024 15 81.4649 15.375 82.8399 15.375C84.7774 15.375 85.9962 14.4688 85.9962 13.0625C85.9962 11.9375 85.2774 11.25 83.7774 10.875L82.4337 10.5312C81.5587 10.3438 81.1837 9.96875 81.1837 9.3125C81.1837 8.53125 81.8399 8.0625 82.9962 8.0625C83.8399 8.0625 84.6524 8.375 85.4024 9L85.8399 8.0625C85.1524 7.375 84.1212 7 82.9962 7C81.1212 7 79.9024 8 79.9024 9.40625C79.9024 10.4688 80.6524 11.25 81.9962 11.5625L83.3712 11.875C84.3399 12.125 84.7462 12.4688 84.7462 13.0938C84.7462 13.875 84.0899 14.3125 82.9024 14.3125C81.7774 14.3125 80.9337 14.0625 80.0587 13.375L79.6212 14.3125ZM87.2562 14.3125C88.0374 15 89.0999 15.375 90.4749 15.375C92.4124 15.375 93.6312 14.4688 93.6312 13.0625C93.6312 11.9375 92.9124 11.25 91.4124 10.875L90.0687 10.5312C89.1937 10.3438 88.8187 9.96875 88.8187 9.3125C88.8187 8.53125 89.4749 8.0625 90.6312 8.0625C91.4749 8.0625 92.2874 8.375 93.0374 9L93.4749 8.0625C92.7874 7.375 91.7562 7 90.6312 7C88.7562 7 87.5374 8 87.5374 9.40625C87.5374 10.4688 88.2874 11.25 89.6312 11.5625L91.0062 11.875C91.9749 12.125 92.3812 12.4688 92.3812 13.0938C92.3812 13.875 91.7249 14.3125 90.5374 14.3125C89.4124 14.3125 88.5687 14.0625 87.6937 13.375L87.2562 14.3125ZM101.204 8.59375C100.704 7.59375 99.7349 7 98.4849 7C96.3599 7 94.9224 8.71875 94.9224 11.2188C94.9224 13.7188 96.3287 15.375 98.4849 15.375C99.7349 15.375 100.735 14.8125 101.204 13.7812V15.25H102.485V7.1875H101.204V8.59375ZM101.204 11.1875C101.204 13.1562 100.329 14.2812 98.7349 14.2812C97.1412 14.2812 96.2349 13.1875 96.2349 11.2188C96.2349 9.25 97.1412 8.09375 98.7349 8.09375C100.329 8.09375 101.204 9.1875 101.204 11.1875ZM110.151 8.59375C109.651 7.59375 108.682 7 107.401 7C105.245 7 103.807 8.625 103.807 11C103.807 13.4062 105.245 15 107.401 15C108.682 15 109.651 14.4062 110.151 13.4062V15.3125C110.151 16.9062 109.37 17.75 107.807 17.75C106.714 17.75 105.901 17.5 104.87 16.9375L104.651 18C105.526 18.5312 106.589 18.8125 107.807 18.8125C110.182 18.8125 111.432 17.5625 111.432 15.1875V7.1875H110.151V8.59375ZM110.151 11C110.151 12.8125 109.214 13.9375 107.651 13.9375C106.057 13.9375 105.12 12.8125 105.12 11C105.12 9.1875 106.057 8.09375 107.651 8.09375C109.214 8.09375 110.151 9.1875 110.151 11ZM119.942 10.9375C119.942 8.5 118.661 7 116.536 7C114.317 7 112.755 8.71875 112.755 11.1875C112.755 13.7812 114.255 15.375 116.786 15.375C117.911 15.375 119.099 14.9375 119.817 14.2812L119.38 13.3438C118.599 13.9688 117.724 14.2812 116.786 14.2812C115.005 14.2812 114.067 13.2188 114.067 11.1875H119.942V10.9375ZM114.099 10.3438C114.349 8.875 115.192 8.03125 116.536 8.03125C117.88 8.03125 118.661 8.8125 118.786 10.3438H114.099Z" fill="white"/>
</svg>
