<svg width="38" height="38" viewBox="0 0 38 38" fill="none" xmlns="http://www.w3.org/2000/svg">
<rect width="38" height="38" rx="8" fill="#18A0FB"/>
<path fill-rule="evenodd" clip-rule="evenodd" d="M18.1238 15.4119C18.1238 16.9096 16.9096 18.1238 15.4119 18.1238C13.9142 18.1238 12.7 16.9096 12.7 15.4119C12.7 13.9142 13.9142 12.7 15.4119 12.7C16.9096 12.7 18.1238 13.9142 18.1238 15.4119ZM19.7364 16.29C19.3292 18.3059 17.5478 19.8238 15.4119 19.8238C12.9753 19.8238 11 17.8485 11 15.4119C11 12.9753 12.9753 11 15.4119 11C17.5478 11 19.3292 12.5178 19.7364 14.5337C19.765 14.5309 19.7939 14.5295 19.8232 14.5295H24.2351C24.7225 14.5295 25.1175 14.9245 25.1175 15.4119C25.1175 15.8992 24.7225 16.2942 24.2351 16.2942H19.8232C19.7939 16.2942 19.765 16.2928 19.7364 16.29Z" fill="white"/>
<path fill-rule="evenodd" clip-rule="evenodd" d="M18.877 23.3533C18.877 21.8555 20.0911 20.6414 21.5888 20.6414C23.0866 20.6414 24.3007 21.8555 24.3007 23.3533C24.3007 24.851 23.0866 26.0652 21.5888 26.0652C20.0911 26.0652 18.877 24.851 18.877 23.3533ZM17.2644 22.4752C17.6715 20.4592 19.4529 18.9414 21.5888 18.9414C24.0255 18.9414 26.0007 20.9167 26.0007 23.3533C26.0007 25.7899 24.0255 27.7652 21.5888 27.7652C19.4529 27.7652 17.6715 26.2473 17.2644 24.2314C17.2358 24.2342 17.2068 24.2357 17.1774 24.2357L12.7655 24.2357C12.2782 24.2357 11.8832 23.8406 11.8832 23.3533C11.8832 22.866 12.2782 22.4709 12.7655 22.4709L17.1774 22.4709C17.2068 22.4709 17.2358 22.4724 17.2644 22.4752Z" fill="white"/>
</svg>
