<svg width="24" height="12" viewBox="0 0 24 12" fill="none" xmlns="http://www.w3.org/2000/svg">
<path d="M21.9073 11.3246C22.1972 11.092 22.4516 10.8191 22.6633 10.5143L22.8251 10.2813C23.7678 8.92407 23.8239 7.16011 23.0529 5.72242C22.604 4.88535 22.0035 4.13684 21.2837 3.51715C21.2553 3.49278 21.2268 3.46879 21.198 3.4452C16.3988 -0.550632 9.46193 -1.1225 3.68634 2.00156C3.65174 2.01994 3.61728 2.03874 3.58298 2.05797C2.71116 2.54644 1.92106 3.18032 1.25519 3.9255C0.111531 5.20536 -0.312083 6.93901 0.241397 8.41958L0.336413 8.67375C0.460713 9.00625 0.635388 9.31454 0.855754 9.58922C1.91497 10.9095 3.92687 10.9031 5.31464 9.78973L8.4276 7.29227C9.81539 6.17889 10.2578 4.21623 9.19859 2.89597C8.97822 2.62129 8.71514 2.38393 8.41749 2.1905L8.18996 2.04264C8.11227 1.99215 8.03301 1.94475 7.95232 1.90043C11.0375 1.14659 14.243 1.41084 17.0547 2.65079C16.9638 2.68098 16.8735 2.71439 16.7838 2.75109L16.5213 2.85855C16.1778 2.99913 15.8563 3.18829 15.5663 3.4209C14.1727 4.53896 14.0729 6.52987 15.1277 7.8446L17.4937 10.7937C18.5485 12.1085 20.5137 12.4427 21.9073 11.3246Z" fill="white"/>
</svg>
