<svg width="44" height="157" viewBox="0 0 44 157" fill="none" xmlns="http://www.w3.org/2000/svg">
<rect y="112.462" width="44" height="44" rx="9" fill="#18A0FB" fill-opacity="0.1"/>
<path d="M25.4532 6.99356C23.9684 5.85431 23.6331 4.71506 23.5575 4.25862C23.5364 4.13241 23.593 4.00585 23.7107 3.91619L24.9123 2.99466C25.089 2.85913 25.1204 2.6479 24.9879 2.48534L23.0747 0.206016C22.9281 0.0260016 22.6272 -0.0389673 22.3798 0.0559956L19.3084 1.16582C19.1084 1.2414 18.9907 1.4045 19.0134 1.57472C19.1743 2.74772 19.8409 5.63123 23.5342 8.46515C27.2275 11.2991 30.9852 11.8103 32.5148 11.9337C32.7367 11.9512 32.9492 11.8609 33.0477 11.7074L34.4942 9.35087C34.6175 9.16145 34.5334 8.93116 34.2998 8.81849L31.329 7.35101C31.1173 7.24925 30.842 7.27315 30.6652 7.40863L29.4641 8.33057C29.3473 8.42086 29.1823 8.46429 29.0178 8.44807C28.4229 8.39004 26.9381 8.1328 25.4532 6.99356Z" fill="#18A0FB"/>
<path d="M31.3494 6.37943C31.0531 6.37943 30.8129 6.19516 30.8129 5.96785C30.8104 4.26384 29.0106 2.88295 26.7897 2.88102C26.4935 2.88102 26.2533 2.69675 26.2533 2.46944C26.2533 2.24213 26.4935 2.05786 26.7897 2.05786C29.6029 2.06024 31.8827 3.80941 31.8858 5.96785C31.8858 6.19516 31.6456 6.37943 31.3494 6.37943Z" fill="#18A0FB"/>
<path d="M34.0315 6.37946C33.7353 6.37946 33.4951 6.19519 33.4951 5.96788C33.491 3.12785 30.4913 0.826332 26.7897 0.823156C26.4935 0.823156 26.2533 0.638886 26.2533 0.411578C26.2533 0.18427 26.4935 0 26.7897 0C31.0836 0.00362927 34.5632 2.67342 34.568 5.96788C34.568 6.07704 34.5114 6.18173 34.4108 6.25891C34.3102 6.3361 34.1738 6.37946 34.0315 6.37946Z" fill="#18A0FB"/>
</svg>
