<svg width="24" height="24" viewBox="0 0 24 24" fill="none" xmlns="http://www.w3.org/2000/svg">
<path fill-rule="evenodd" clip-rule="evenodd" d="M1.2931 6.6192C1.78235 5.54271 2.47401 4.60288 3.28557 3.75265C5.1214 1.82915 7.34335 0.597315 9.97397 0.177034C13.6559 -0.410844 16.9512 0.456792 19.799 2.90886C19.9789 3.06357 20.0233 3.15446 19.828 3.3459C18.8231 4.33021 17.8336 5.33064 16.8384 6.32526C16.7365 6.42711 16.6675 6.55151 16.4864 6.38585C13.9795 4.08849 9.88695 4.11491 7.22281 6.59277C6.30811 7.44364 5.65771 8.46276 5.23227 9.63143C5.17039 9.59082 5.10464 9.55472 5.04598 9.5096C3.79416 8.54592 2.54428 7.58288 1.2931 6.6192Z" fill="#D7282A"/>
<path fill-rule="evenodd" clip-rule="evenodd" d="M5.20199 14.3223C5.56167 15.2351 6.00774 16.0982 6.67168 16.8311C8.35925 18.6953 10.4516 19.4992 12.9579 19.2387C14.1226 19.1175 15.1837 18.723 16.1751 18.1171C16.2705 18.2022 16.3607 18.2931 16.4613 18.3717C17.6216 19.2774 18.7838 20.1818 19.9447 21.0862C18.6639 22.3025 17.1516 23.1122 15.4505 23.5421C11.4398 24.5561 7.74301 23.9153 4.46005 21.3247C3.10316 20.2533 2.03505 18.9306 1.2828 17.3649C2.59005 16.3509 3.89602 15.337 5.20199 14.3223Z" fill="#45AC43"/>
<path fill-rule="evenodd" clip-rule="evenodd" d="M19.9456 21.0869C18.7841 20.1825 17.6225 19.2781 16.4622 18.3724C16.3616 18.2938 16.2714 18.2029 16.176 18.1178C16.9624 17.5177 17.6186 16.808 18.0492 15.9062C18.2213 15.5465 18.3419 15.1701 18.456 14.7897C18.5346 14.5274 18.5101 14.4255 18.1859 14.4281C16.2527 14.4442 14.3195 14.4365 12.3864 14.4365C11.9771 14.4365 11.9764 14.4365 11.9764 14.013C11.9764 12.7025 11.9829 11.3927 11.9706 10.0822C11.968 9.82951 12.0125 9.73218 12.2974 9.73347C15.8627 9.74378 19.4287 9.74185 22.994 9.73669C23.1867 9.73669 23.3072 9.75087 23.3408 9.98486C23.7842 13.1035 23.4291 16.0828 21.7963 18.8353C21.2974 19.6771 20.6972 20.4461 19.9456 21.0869Z" fill="#5D7FBE"/>
<path fill-rule="evenodd" clip-rule="evenodd" d="M5.20204 14.3222C3.89608 15.3361 2.58947 16.3501 1.2835 17.3647C0.645345 16.1786 0.277921 14.9049 0.105812 13.5777C-0.19135 11.2784 0.135464 9.06608 1.11075 6.95694C1.16425 6.84091 1.23193 6.73198 1.29317 6.61917C2.5437 7.58221 3.79423 8.54589 5.04541 9.50828C5.10406 9.5534 5.16917 9.5895 5.2317 9.63011C4.70763 11.1913 4.73406 12.7558 5.20204 14.3222Z" fill="#F4C300"/>
</svg>
