<svg width="46" height="181" viewBox="0 0 46 181" fill="none" xmlns="http://www.w3.org/2000/svg">
<rect y="136.768" width="45.4838" height="44.2319" rx="9" fill="#18A0FB" fill-opacity="0.1"/>
<path d="M36.9375 0.308371C36.8406 0.280629 36.7475 0.2667 36.6581 0.2667C36.4569 0.2667 36.2895 0.319613 36.1553 0.425148L31.6521 3.77681V2.40117C31.6521 1.73967 31.3374 1.1742 30.7079 0.704492C30.0784 0.23484 29.3206 0 28.434 0H20.5677C19.6813 0 18.9233 0.23484 18.2937 0.704492C17.6644 1.1742 17.3496 1.73967 17.3496 2.40117V8.27061C17.3496 8.93206 17.6644 9.49749 18.2937 9.96717C18.9233 10.4369 19.6813 10.6717 20.5677 10.6717H28.434C29.3207 10.6717 30.0785 10.4369 30.708 9.96717C31.3375 9.49749 31.6522 8.93209 31.6522 8.27061V6.88653L36.1553 10.2465C36.2895 10.352 36.457 10.4049 36.6581 10.4049C36.7476 10.4049 36.8407 10.391 36.9375 10.3633C37.2282 10.2688 37.3734 10.1049 37.3734 9.87145V0.800391C37.3733 0.566835 37.2281 0.402897 36.9375 0.308371Z" fill="#18A0FB"/>
</svg>
