<svg width="25" height="24" viewBox="0 0 25 24" fill="none" xmlns="http://www.w3.org/2000/svg">
<path d="M7.3702 15.4413V17.625C7.3702 21.1145 10.4272 24 14.1851 24C17.943 24 21 21.1145 21 17.625V16.8507C22.726 16.524 24.0289 15.1039 24.0289 13.4062C24.0289 11.4678 22.3303 9.89062 20.2428 9.89062C18.1553 9.89062 16.4567 11.4678 16.4567 13.4062C16.4567 15.1039 17.7596 16.524 19.4856 16.8507V17.625C19.4856 20.3386 17.1075 22.5938 14.1851 22.5938C11.2627 22.5938 8.88463 20.3386 8.88463 17.625V15.4422C11.975 14.9158 15.5414 11.3526 16.1588 7.96322C16.5636 5.73694 15.5633 3.95475 13.4279 3.06333V2.10938C13.4279 0.946219 12.4089 0 11.1563 0C9.90363 0 8.88463 0.946219 8.88463 2.10938C8.88463 3.27253 9.90363 4.21875 11.1563 4.21875H12.5006C14.243 4.81777 14.9752 6.02677 14.665 7.72908C14.1334 10.6507 10.5898 14.1094 8.12742 14.1094C5.3695 14.1094 1.53629 10.0426 1.51307 7.03125C1.50272 5.68898 2.26009 4.72655 3.73387 4.21875H5.09857C6.3512 4.21875 7.3702 3.27253 7.3702 2.10938C7.3702 0.946219 6.35125 0 5.09857 0C3.84589 0 2.82693 0.946219 2.82693 2.10938V3.0555C1.00544 3.81291 -0.00392602 5.23219 1.14768e-05 7.03125C0.00773503 10.5569 3.9416 14.8515 7.3702 15.4413ZM19.4856 12.7031H21V14.1094H19.4856V12.7031Z" fill="#202244"/>
</svg>
