<svg width="17" height="17" viewBox="0 0 17 17" fill="none" xmlns="http://www.w3.org/2000/svg">
<path d="M7.536 0.700369C7.83943 -0.233481 9.16057 -0.233479 9.464 0.700371L10.7757 4.73736C10.9114 5.15499 11.3006 5.43775 11.7397 5.43775H15.9844C16.9663 5.43775 17.3746 6.69423 16.5802 7.27138L13.1462 9.76638C12.7909 10.0245 12.6422 10.482 12.7779 10.8996L14.0896 14.9366C14.3931 15.8705 13.3242 16.647 12.5299 16.0699L9.09578 13.5749C8.74053 13.3168 8.25947 13.3168 7.90421 13.5749L4.47015 16.0699C3.67577 16.647 2.60694 15.8705 2.91036 14.9366L4.22206 10.8996C4.35776 10.482 4.2091 10.0245 3.85384 9.76638L0.419775 7.27138C-0.374605 6.69423 0.0336546 5.43775 1.01556 5.43775H5.2603C5.69942 5.43775 6.08861 5.15499 6.2243 4.73736L7.536 0.700369Z" fill="white"/>
</svg>
