<svg width="46" height="46" viewBox="0 0 46 46" fill="none" xmlns="http://www.w3.org/2000/svg">
<path fill-rule="evenodd" clip-rule="evenodd" d="M0.878341 15.2765C-0.292781 20.2262 -0.29278 25.3773 0.878343 30.3269C2.5696 37.4749 8.19928 43.056 15.4094 44.7327C20.402 45.8937 25.598 45.8937 30.5907 44.7327C37.8008 43.056 43.4304 37.4749 45.1217 30.3269C46.2928 25.3773 46.2928 20.2262 45.1217 15.2765C43.4304 8.1286 37.8007 2.54744 30.5907 0.870767C25.598 -0.290258 20.402 -0.290253 15.4094 0.870767C8.19929 2.54744 2.5696 8.1286 0.878341 15.2765Z" fill="white"/>
<path fill-rule="evenodd" clip-rule="evenodd" d="M25.1099 30.469C24.6939 30.9931 23.9698 31.0476 23.4927 30.5906L16.4804 23.8754C16.2307 23.6363 16.0874 23.2902 16.0874 22.9263C16.0874 22.5624 16.2307 22.2163 16.4804 21.9772L23.4927 15.262C23.9698 14.805 24.6939 14.8595 25.1099 15.3836C25.5259 15.9078 25.4763 16.7032 24.9991 17.1601L20.2927 21.6672L34.045 21.6672C34.6781 21.6672 35.1913 22.2309 35.1913 22.9263C35.1913 23.6217 34.6781 24.1854 34.045 24.1854L20.2927 24.1854L24.9991 28.6925C25.4763 29.1494 25.5259 29.9448 25.1099 30.469Z" fill="#202244"/>
</svg>
