<svg width="17" height="17" viewBox="0 0 17 17" fill="none" xmlns="http://www.w3.org/2000/svg">
<path d="M7.53599 0.700379C7.83942 -0.233484 9.16058 -0.233482 9.46401 0.700381L10.7757 4.73743C10.9114 5.15506 11.3006 5.43782 11.7397 5.43782H15.9845C16.9665 5.43782 17.3747 6.69433 16.5803 7.27149L13.1462 9.76652C12.791 10.0246 12.6423 10.4822 12.778 10.8998L14.0897 14.9368C14.3932 15.8707 13.3243 16.6473 12.5299 16.0701L9.09579 13.5751C8.74053 13.317 8.25947 13.317 7.90421 13.5751L4.47009 16.0701C3.6757 16.6473 2.60685 15.8707 2.91028 14.9368L4.222 10.8998C4.3577 10.4822 4.20904 10.0246 3.85378 9.76652L0.419658 7.27149C-0.374734 6.69433 0.0335313 5.43782 1.01545 5.43782H5.26025C5.69938 5.43782 6.08857 5.15506 6.22427 4.73743L7.53599 0.700379Z" fill="white"/>
</svg>
