<svg width="19" height="19" viewBox="0 0 19 19" fill="none" xmlns="http://www.w3.org/2000/svg">
<g clip-path="url(#clip0_31_834)">
<path d="M15.5582 13.7296H3.44195C3.25684 13.7296 3.0839 13.6381 2.97968 13.4852C1.38107 11.1409 1.25844 6.63141 1.24916 5.96199C1.24858 5.93575 1.24829 5.90923 1.24829 5.88284C1.24829 5.57423 1.4982 5.32388 1.80682 5.3233H1.80798C2.11601 5.3233 2.36636 5.57249 2.36752 5.88067C2.36752 5.88444 2.36766 5.91749 2.36897 5.97605C2.41825 7.56813 3.72882 8.84797 5.33264 8.84797C6.96763 8.84797 8.29777 7.51783 8.29777 5.88284C8.29777 5.57379 8.5484 5.3233 8.85731 5.3233H10.1427C10.4517 5.3233 10.7022 5.57379 10.7022 5.88284C10.7022 7.51783 12.0325 8.84797 13.6675 8.84797C15.2727 8.84797 16.5842 7.56581 16.6313 5.9717C16.6323 5.91575 16.6326 5.88444 16.6326 5.88081C16.6338 5.57249 16.8839 5.3233 17.1921 5.3233H17.1931C17.5018 5.32388 17.7517 5.57423 17.7517 5.88284C17.7517 5.90937 17.7514 5.93575 17.7509 5.96214C17.7415 6.63141 17.6189 11.1411 16.0204 13.4853C15.9162 13.6381 15.7431 13.7296 15.5582 13.7296Z" fill="white"/>
<path d="M17.1932 5.3233C17.1929 5.3233 17.1926 5.3233 17.1922 5.3233C16.8841 5.3233 16.6338 5.57249 16.6326 5.88067C16.6326 5.88444 16.6325 5.91575 16.6313 5.9717C16.5842 7.56567 15.2728 8.84797 13.6675 8.84797C12.0325 8.84797 10.7024 7.51783 10.7024 5.88284C10.7024 5.57379 10.4518 5.3233 10.1428 5.3233H9.50024V13.7295H15.5582C15.7433 13.7295 15.9163 13.638 16.0205 13.4852C17.6191 11.1409 17.7417 6.63126 17.751 5.96199C17.7516 5.93575 17.7519 5.90923 17.7519 5.88284C17.7517 5.57423 17.5018 5.32388 17.1932 5.3233Z" fill="white"/>
<path d="M9.50006 3.41406C8.50318 3.41406 7.69214 4.22511 7.69214 5.22198C7.69214 6.21886 8.50318 7.02976 9.50006 7.02976C10.4969 7.02976 11.308 6.21886 11.308 5.22198C11.308 4.22511 10.4969 3.41406 9.50006 3.41406Z" fill="white"/>
<path d="M9.50024 3.41406V7.02991C10.4971 7.02976 11.308 6.21886 11.308 5.22198C11.308 4.22511 10.497 3.41421 9.50024 3.41406Z" fill="white"/>
<path d="M1.80792 4.80927C0.811043 4.80927 0 5.62031 0 6.61719C0 7.61407 0.811043 8.42511 1.80792 8.42511C2.8048 8.42511 3.6157 7.61407 3.6157 6.61719C3.6157 5.62031 2.8048 4.80927 1.80792 4.80927Z" fill="white"/>
<path d="M17.1921 4.80927C16.1952 4.80927 15.3843 5.62031 15.3843 6.61719C15.3843 7.61392 16.1952 8.42497 17.1921 8.42497C18.1889 8.42497 19 7.61392 19 6.61719C19 5.62031 18.1889 4.80927 17.1921 4.80927Z" fill="white"/>
<path d="M15.5581 15.5652H3.44186C3.13281 15.5652 2.88232 15.3147 2.88232 15.0057V13.337H16.1176V15.0057C16.1176 15.3147 15.8671 15.5652 15.5581 15.5652Z" fill="white"/>
<path d="M9.50024 15.5652H15.5582C15.8673 15.5652 16.1177 15.3147 16.1177 15.0057V13.337H9.50024V15.5652Z" fill="white"/>
</g>
<defs>
<clipPath id="clip0_31_834">
<rect width="19" height="19" fill="white"/>
</clipPath>
</defs>
</svg>
