<svg width="46" height="46" viewBox="0 0 46 46" fill="none" xmlns="http://www.w3.org/2000/svg">
<path fill-rule="evenodd" clip-rule="evenodd" d="M0.878341 15.4094C-0.292781 20.402 -0.29278 25.598 0.878343 30.5907C2.5696 37.8007 8.19928 43.4304 15.4094 45.1217C20.402 46.2928 25.598 46.2928 30.5907 45.1217C37.8008 43.4304 43.4304 37.8007 45.1217 30.5907C46.2928 25.598 46.2928 20.402 45.1217 15.4094C43.4304 8.19928 37.8007 2.56959 30.5907 0.878338C25.598 -0.292782 20.402 -0.292777 15.4094 0.878339C8.19929 2.56959 2.5696 8.19928 0.878341 15.4094Z" fill="white"/>
<path d="M15.3765 22.4147C14.9838 22.8074 14.9838 23.444 15.3765 23.8367L21.7752 30.2354C22.1679 30.628 22.8045 30.628 23.1971 30.2354C23.5898 29.8427 23.5898 29.2061 23.1971 28.8134L17.5094 23.1257L23.1971 17.4379C23.5898 17.0453 23.5898 16.4086 23.1971 16.016C22.8045 15.6233 22.1679 15.6233 21.7752 16.016L15.3765 22.4147ZM30.1639 22.1202H16.0874V24.1311L30.1639 24.1311V22.1202Z" fill="#202244"/>
</svg>
