<svg width="28" height="24" viewBox="0 0 28 24" fill="none" xmlns="http://www.w3.org/2000/svg">
<path d="M26.7358 10.6627L24.4386 8.71909V2.27422C24.4386 1.86415 24.0806 1.53166 23.6389 1.53166H18.1094C17.6677 1.53166 17.3097 1.8641 17.3097 2.27422V2.6872L14.5354 0.339867C13.9999 -0.113305 13.1923 -0.113256 12.657 0.339817L0.456635 10.6628C0.0277155 11.0257 -0.114036 11.585 0.0955375 12.0875C0.305164 12.59 0.815555 12.9146 1.39589 12.9146H3.34446V23.2574C3.34446 23.6675 3.70248 24 4.14414 24H10.8314C11.273 24 11.6311 23.6675 11.6311 23.2574V16.9776H15.5613V23.2574C15.5613 23.6675 15.9194 24 16.361 24H23.048C23.4897 24 23.8477 23.6676 23.8477 23.2574V12.9147H25.7967C26.3769 12.9147 26.8874 12.59 27.097 12.0875C27.3065 11.585 27.1648 11.0257 26.7358 10.6627ZM23.048 11.4295C22.6064 11.4295 22.2484 11.762 22.2484 12.1721V22.5149H17.1608V16.235C17.1608 15.8249 16.8027 15.4925 16.3611 15.4925H10.8314C10.3898 15.4925 10.0317 15.8249 10.0317 16.235V22.5149H4.94377V12.1721C4.94377 11.762 4.58576 11.4295 4.14409 11.4295H1.92498L13.5963 1.55434L17.5709 4.9173C17.805 5.11536 18.1429 5.1664 18.4325 5.0477C18.7222 4.92885 18.9091 4.66244 18.9091 4.36841V3.01678H22.8394V9.04704C22.8394 9.256 22.9341 9.45519 23.1005 9.59594L25.2675 11.4295H23.048Z" fill="#202244"/>
</svg>
