<svg width="16" height="19" viewBox="0 0 16 19" fill="none" xmlns="http://www.w3.org/2000/svg">
<path d="M3.7079 9.00964C3.99917 10.9654 5.47987 12.4878 7.34858 12.753L7.46622 12.7697C7.76815 12.8126 8.0742 12.8126 8.37612 12.7697L8.47803 12.7553C10.3555 12.4888 11.8423 10.9577 12.132 8.99238C12.3848 7.27726 12.3846 5.5302 12.1318 3.81508C11.8422 1.85072 10.3578 0.317533 8.48177 0.0473339L8.38293 0.0330987C8.07653 -0.011033 7.76581 -0.0110329 7.45941 0.0330988L7.34484 0.0495999C5.47758 0.318541 3.99922 1.84307 3.7081 3.7978C3.451 5.52415 3.4508 7.28329 3.7079 9.00964Z" fill="white"/>
<path d="M1.53226 8.54503C1.53226 8.10086 1.18925 7.7408 0.766131 7.7408C0.343008 7.7408 0 8.10086 0 8.54503C0 12.8634 3.13776 16.4125 7.15055 16.817V18.1958C7.15055 18.64 7.49356 19 7.91668 19C8.33981 19 8.68282 18.64 8.68282 18.1958V16.817C12.6956 16.4125 15.8334 12.8634 15.8334 8.54503C15.8334 8.10086 15.4904 7.7408 15.0672 7.7408C14.6441 7.7408 14.3011 8.10086 14.3011 8.54503C14.3011 12.2464 11.4427 15.247 7.91668 15.247C4.39066 15.247 1.53226 12.2464 1.53226 8.54503Z" fill="white"/>
</svg>
