<svg width="18" height="13" viewBox="0 0 18 13" fill="none" xmlns="http://www.w3.org/2000/svg">
<path d="M7.84122 8.21986C6.07146 7.10668 5.41769 5.73934 5.21273 5.17853C5.15585 5.02352 5.17433 4.85086 5.26273 4.7114L6.16369 3.27974C6.29623 3.06917 6.26581 2.79497 6.09035 2.61857L3.57623 0.157582C3.38206 -0.0377795 3.07117 -0.0534429 2.85835 0.121414L0.196529 2.20471C0.024082 2.34459 -0.043162 2.57697 0.0279415 2.78732C0.522188 4.23591 2.00017 7.73702 6.40226 10.5061C10.8044 13.2753 14.5996 13.0913 16.1201 12.9093C16.3405 12.8823 16.5209 12.7211 16.5723 12.505L17.2975 9.2036C17.3626 8.93667 17.2146 8.66388 16.9553 8.57299L13.6484 7.37303C13.4135 7.2911 13.1531 7.3822 13.0206 7.59271L12.1203 9.02477C12.0328 9.16485 11.8852 9.25627 11.7208 9.27212C11.1266 9.33022 9.61099 9.33304 7.84122 8.21986Z" fill="#18A0FB"/>
</svg>
